<svg width="22" height="31" viewBox="0 0 22 31" fill="none" xmlns="http://www.w3.org/2000/svg">
<path d="M21.8495 1.01716C22.0057 0.901805 22.0388 0.681682 21.9234 0.525503C21.8081 0.369324 21.5879 0.336231 21.4318 0.451588L21.8495 1.01716ZM1.25 15.7953L1.04113 15.5125C0.950442 15.5795 0.897382 15.6859 0.898453 15.7987C0.899524 15.9114 0.954597 16.0168 1.04654 16.082L1.25 15.7953ZM21.4372 30.5523C21.5955 30.6647 21.815 30.6274 21.9273 30.4691C22.0397 30.3107 22.0024 30.0913 21.8441 29.9789L21.4372 30.5523ZM21.4318 0.451588L1.04113 15.5125L1.45887 16.0781L21.8495 1.01716L21.4318 0.451588ZM1.04654 16.082L21.4372 30.5523L21.8441 29.9789L1.45346 15.5086L1.04654 16.082Z" fill="white"/>
</svg>
