<svg style="display: none;" aria-hidden="true" xmlns="http://www.w3.org/2000/svg" xmlns:xlink="http://www.w3.org/1999/xlink"><symbol viewBox="0 0 22 31" fill="none" id="svg-arrow" xmlns="http://www.w3.org/2000/svg">
<path d="M21.8495 1.01716C22.0057 0.901805 22.0388 0.681682 21.9234 0.525503C21.8081 0.369324 21.5879 0.336231 21.4318 0.451588L21.8495 1.01716ZM1.25 15.7953L1.04113 15.5125C0.950442 15.5795 0.897382 15.6859 0.898453 15.7987C0.899524 15.9114 0.954597 16.0168 1.04654 16.082L1.25 15.7953ZM21.4372 30.5523C21.5955 30.6647 21.815 30.6274 21.9273 30.4691C22.0397 30.3107 22.0024 30.0913 21.8441 29.9789L21.4372 30.5523ZM21.4318 0.451588L1.04113 15.5125L1.45887 16.0781L21.8495 1.01716L21.4318 0.451588ZM1.04654 16.082L21.4372 30.5523L21.8441 29.9789L1.45346 15.5086L1.04654 16.082Z" fill="white"/>
</symbol><symbol viewBox="0 0 39 13" fill="none" id="svg-arrow-bg" xmlns="http://www.w3.org/2000/svg">
<path d="M0.5 5.90049H0V6.90049H0.5V5.90049ZM38 6.40049L38.2864 6.81029L38.8908 6.38787L38.2747 5.98273L38 6.40049ZM33.0685 0.825965L32.894 0.357412L31.9569 0.706459L32.1314 1.17501L33.0685 0.825965ZM32.161 11.5611L31.9216 12.0001L32.7996 12.4788L33.0389 12.0399L32.161 11.5611ZM0.5 6.90049H38V5.90049H0.5V6.90049ZM32.1314 1.17501C32.3907 1.87107 32.8884 2.56865 33.4539 3.20833C34.0244 3.85375 34.6905 4.46947 35.3193 5.00063C35.9493 5.53274 36.5492 5.98597 36.9912 6.30603C37.2125 6.46624 37.3948 6.5935 37.5223 6.68106C37.5861 6.72485 37.6362 6.75874 37.6707 6.78188C37.6879 6.79345 37.7012 6.80233 37.7104 6.80843C37.715 6.81148 37.7186 6.81383 37.721 6.81547C37.7223 6.81629 37.7232 6.81693 37.7239 6.81739C37.7243 6.81762 37.7246 6.81781 37.7248 6.81795C37.7249 6.81802 37.725 6.8181 37.7251 6.81813C37.7252 6.81819 37.7252 6.81824 38 6.40049C38.2747 5.98273 38.2748 5.98276 38.2748 5.98278C38.2748 5.98277 38.2748 5.98277 38.2747 5.98275C38.2747 5.98272 38.2746 5.98263 38.2744 5.98251C38.274 5.98225 38.2733 5.98182 38.2724 5.98121C38.2706 5.97999 38.2677 5.97807 38.2637 5.97546C38.2559 5.97024 38.2439 5.96225 38.228 5.95161C38.1963 5.93031 38.1491 5.8984 38.0884 5.8567C37.9669 5.77328 37.7915 5.65082 37.5777 5.49606C37.1497 5.18619 36.5706 4.7485 35.9646 4.23666C35.3575 3.72387 34.7305 3.14262 34.2031 2.546C33.6706 1.94364 33.2653 1.35411 33.0685 0.825965L32.1314 1.17501ZM38 6.40049C37.7135 5.99068 37.7134 5.99073 37.7134 5.99079C37.7133 5.99082 37.7132 5.99089 37.7131 5.99096C37.7129 5.9911 37.7127 5.99128 37.7124 5.9915C37.7117 5.99194 37.7109 5.99255 37.7097 5.99333C37.7075 5.99488 37.7044 5.9971 37.7003 5.99998C37.6921 6.00574 37.6803 6.01413 37.6649 6.02507C37.6342 6.04693 37.5896 6.07897 37.5325 6.12047C37.4185 6.20345 37.2548 6.32435 37.0543 6.47744C36.6535 6.78339 36.104 7.21911 35.5084 7.73875C34.3304 8.76662 32.9223 10.1652 32.161 11.5611L33.0389 12.0399C33.7101 10.8092 35.002 9.50774 36.1659 8.49226C36.7412 7.99022 37.2731 7.56844 37.6611 7.2723C37.8549 7.12434 38.0123 7.00805 38.1209 6.9291C38.1751 6.88964 38.2171 6.85953 38.2452 6.83949C38.2593 6.82946 38.2699 6.82196 38.2768 6.81707C38.2803 6.81462 38.2828 6.81282 38.2844 6.81169C38.2853 6.81112 38.2858 6.81072 38.2862 6.81049C38.2863 6.81037 38.2864 6.8103 38.2865 6.81027C38.2865 6.81025 38.2865 6.81026 38.2865 6.81025C38.2865 6.81027 38.2864 6.81029 38 6.40049Z" fill="#E58411"/>
</symbol><symbol viewBox="0 0 10 7" fill="none" id="svg-arrow-down" xmlns="http://www.w3.org/2000/svg">
<path d="M4.95911e-05 1.49554C-0.000313759 1.62361 0.0232353 1.75016 0.0689659 1.86588C0.114697 1.98159 0.181446 2.08354 0.264311 2.16423L4.54962 6.30498C4.67742 6.43107 4.83772 6.5 5.00315 6.5C5.16858 6.5 5.32888 6.43107 5.45668 6.30498L9.74199 2.01849C9.88784 1.87297 9.97957 1.66387 9.99698 1.43718C10.0144 1.21048 9.95607 0.984775 9.83484 0.8097C9.71361 0.634626 9.5394 0.524529 9.35054 0.503628C9.16168 0.482727 8.97364 0.552735 8.82779 0.698252L4.99958 4.53037L1.17137 0.826847C1.06653 0.722013 0.93887 0.655421 0.803492 0.63495C0.668113 0.614478 0.53068 0.640983 0.407457 0.711329C0.284235 0.781675 0.180379 0.892918 0.108179 1.03189C0.0359783 1.17087 -0.00154495 1.33177 4.95911e-05 1.49554Z" fill="white"/>
</symbol><symbol viewBox="0 0 8 14" fill="none" id="svg-arrow-lt" xmlns="http://www.w3.org/2000/svg">
<path d="M1 0.999999L7 7L1 13" stroke="#F79489" stroke-width="2" stroke-linecap="round" stroke-linejoin="round"/>
</symbol><symbol viewBox="0 0 24 28" fill="none" id="svg-cart" xmlns="http://www.w3.org/2000/svg">
<path d="M17.8333 9.00016V6.54183C17.8333 5.77578 17.6824 5.01724 17.3892 4.30951C17.0961 3.60178 16.6664 2.95871 16.1247 2.41704C15.583 1.87536 14.94 1.44568 14.2322 1.15253C13.5245 0.85938 12.766 0.708496 11.9999 0.708496C11.2339 0.708496 10.4753 0.85938 9.7676 1.15253C9.05987 1.44568 8.4168 1.87536 7.87513 2.41704C7.33345 2.95871 6.90377 3.60178 6.61062 4.30951C6.31747 5.01724 6.16658 5.77578 6.16658 6.54183V12.3752C6.16658 12.5962 6.25438 12.8081 6.41066 12.9644C6.56694 13.1207 6.7789 13.2085 6.99992 13.2085C7.22093 13.2085 7.43289 13.1207 7.58917 12.9644C7.74545 12.8081 7.83325 12.5962 7.83325 12.3752V10.6668H14.4999V9.00016H7.83325V6.54183C7.83325 5.43676 8.27224 4.37695 9.05364 3.59555C9.83504 2.81415 10.8948 2.37516 11.9999 2.37516C13.105 2.37516 14.1648 2.81415 14.9462 3.59555C15.7276 4.37695 16.1666 5.43676 16.1666 6.54183V12.3335C16.1666 12.5545 16.2544 12.7665 16.4107 12.9228C16.5669 13.079 16.7789 13.1668 16.9999 13.1668C17.2209 13.1668 17.4329 13.079 17.5892 12.9228C17.7455 12.7665 17.8333 12.5545 17.8333 12.3335V10.6668H21.9999V25.6668H1.99992V10.6668H4.49992V9.00016H0.333252V25.7418C0.333252 26.164 0.500945 26.5688 0.79944 26.8673C1.09794 27.1658 1.50278 27.3335 1.92492 27.3335H22.0749C22.4971 27.3335 22.9019 27.1658 23.2004 26.8673C23.4989 26.5688 23.6666 26.164 23.6666 25.7418V9.00016H17.8333Z" fill="#545454"/>
</symbol><symbol viewBox="0 0 10 20" fill="none" id="svg-facebook" xmlns="http://www.w3.org/2000/svg">
<path d="M8.14971 3.29509H9.96139V0.139742C9.64884 0.0967442 8.5739 0 7.32201 0C4.70992 0 2.92057 1.643 2.92057 4.66274V7.44186H0.0380859V10.9693H2.92057V19.845H6.45462V10.9701H9.22052L9.65958 7.44269H6.4538V5.01251C6.45462 3.99297 6.72915 3.29509 8.14971 3.29509Z" fill="#1E2833"/>
</symbol><symbol viewBox="0 0 20 20" fill="none" id="svg-instagram" xmlns="http://www.w3.org/2000/svg">
<path fill-rule="evenodd" clip-rule="evenodd" d="M6.25 0H13.75C17.2013 0 20 2.79875 20 6.25V13.75C20 17.2013 17.2013 20 13.75 20H6.25C2.79875 20 0 17.2013 0 13.75V6.25C0 2.79875 2.79875 0 6.25 0ZM13.75 18.125C16.1625 18.125 18.125 16.1625 18.125 13.75V6.25C18.125 3.8375 16.1625 1.875 13.75 1.875H6.25C3.8375 1.875 1.875 3.8375 1.875 6.25V13.75C1.875 16.1625 3.8375 18.125 6.25 18.125H13.75Z" fill="#1E2833"/>
<path fill-rule="evenodd" clip-rule="evenodd" d="M5 10C5 7.23875 7.23875 5 10 5C12.7613 5 15 7.23875 15 10C15 12.7613 12.7613 15 10 15C7.23875 15 5 12.7613 5 10ZM6.875 10C6.875 11.7225 8.2775 13.125 10 13.125C11.7225 13.125 13.125 11.7225 13.125 10C13.125 8.27625 11.7225 6.875 10 6.875C8.2775 6.875 6.875 8.27625 6.875 10Z" fill="#1E2833"/>
<circle cx="15.3752" cy="4.62499" r="0.66625" fill="#1E2833"/>
</symbol><symbol viewBox="0 0 16 16" fill="none" id="svg-plus" xmlns="http://www.w3.org/2000/svg">
<path d="M0 8L16 8" stroke="#F79489"/>
<path d="M8 16L8 -5.96046e-07" stroke="#F79489"/>
</symbol><symbol viewBox="0 0 26 26" fill="none" id="svg-search" xmlns="http://www.w3.org/2000/svg">
<path d="M11.75 21.75C17.2728 21.75 21.75 17.2728 21.75 11.75C21.75 6.22715 17.2728 1.75 11.75 1.75C6.22715 1.75 1.75 6.22715 1.75 11.75C1.75 17.2728 6.22715 21.75 11.75 21.75Z" stroke="#545454" stroke-width="2" stroke-linecap="round" stroke-linejoin="round"/>
<path d="M24.25 24.25L18.8125 18.8125" stroke="#545454" stroke-width="2" stroke-linecap="round" stroke-linejoin="round"/>
</symbol><symbol viewBox="0 0 20 16" fill="none" id="svg-twitter" xmlns="http://www.w3.org/2000/svg">
<path d="M19.5556 1.881C18.8283 2.2 18.0534 2.41144 17.2456 2.51411C18.0767 2.01789 18.711 1.23811 19.0092 0.298222C18.2343 0.760222 17.3788 1.08656 16.467 1.26867C15.7312 0.485222 14.6826 0 13.5386 0C11.319 0 9.53211 1.80156 9.53211 4.01011C9.53211 4.32789 9.559 4.63344 9.625 4.92433C6.292 4.76178 3.34278 3.16433 1.36156 0.730889C1.01567 1.331 0.812778 2.01789 0.812778 2.75733C0.812778 4.14578 1.52778 5.37656 2.59356 6.08911C1.94944 6.07689 1.31756 5.88989 0.782222 5.59533C0.782222 5.60756 0.782222 5.62344 0.782222 5.63933C0.782222 7.58756 2.17189 9.20578 3.99422 9.57856C3.66789 9.66778 3.31222 9.71056 2.94311 9.71056C2.68644 9.71056 2.42733 9.69589 2.18411 9.64211C2.70356 11.2298 4.17756 12.397 5.93022 12.4349C4.56622 13.5019 2.83433 14.1448 0.959444 14.1448C0.630667 14.1448 0.315333 14.1301 0 14.0898C1.77589 15.235 3.88056 15.8889 6.15022 15.8889C13.5276 15.8889 17.5609 9.77778 17.5609 4.48067C17.5609 4.30344 17.5548 4.13233 17.5462 3.96244C18.3419 3.39778 19.0104 2.69256 19.5556 1.881Z" fill="#1E2833"/>
</symbol></svg>